<svg xmlns="http://www.w3.org/2000/svg" viewBox="325 636 890 92" fill="none">
  <path fill="#081124" d="M331 636l11 4 33 46 39-50h13v92h-15v-64l-33 43-7-1-32-42v64h-15v-91l6 1Z"/>
  <path fill="#081124" d="M552 636h13l42 89v3h-16l-35-75-34 74-17 1 42-90 5-1Z"/>
  <path fill="#081124" d="M756 636h7v61l-6 16-9 9-13 6h-21l-13-6-14-20 17-1 7 9 11 4 17-4 9-14v-59l8 1Z"/>
  <path fill="#081124" d="M862 636h10v92h-14v-91l4 1Z"/>
  <path fill="#081124" d="M978 636h76l-5 16-68 1 1 25h57l-5 14h-52l-1 36h-14v-84l3-5 8-2Z"/>
  <path fill="#081124" d="M1121 636h13l32 42 31-41 18-1-42 56v36h-14v-35l-41-53-1-3 4-1Z"/>
</svg>
